<svg width="31" height="36" viewBox="0 0 31 36" fill="none" xmlns="http://www.w3.org/2000/svg">
<path d="M16.4332 21.5932C16.1999 21.5932 16.0054 21.5154 15.8499 21.3599C14.8388 20.4265 14.3721 19.2988 14.4499 17.9765C14.4499 16.9654 14.6832 16.0321 15.1499 15.1765C15.2277 14.9432 15.3638 14.8071 15.5582 14.7682C15.7527 14.7293 15.9471 14.7682 16.1416 14.8849C16.336 15.0015 16.4527 15.1571 16.4916 15.3515C16.5304 15.546 16.511 15.721 16.4332 15.8765C16.1221 16.2654 15.9277 16.8099 15.8499 17.5099C15.6943 18.5988 16.0443 19.5321 16.8999 20.3099C17.1332 20.5432 17.1916 20.8154 17.0749 21.1265C16.9582 21.4376 16.7054 21.5932 16.3166 21.5932H16.4332ZM3.48322 24.7432C2.62766 24.6654 1.88877 24.3154 1.26655 23.6932C0.566553 22.9932 0.216553 22.1182 0.216553 21.0682C0.216553 20.0182 0.566553 19.1432 1.26655 18.4432L8.61655 10.9765C8.92766 10.7432 9.19989 10.5488 9.43322 10.3932C9.66655 10.2376 9.88044 10.1988 10.0749 10.2765C10.2693 10.3543 10.4054 10.471 10.4832 10.6265C10.561 10.7821 10.5804 10.9571 10.5416 11.1515C10.5027 11.346 10.386 11.5015 10.1916 11.6182C9.99711 11.7349 9.82211 11.871 9.66655 12.0265L2.31655 19.4932C1.84989 19.8821 1.61655 20.4071 1.61655 21.0682C1.61655 21.7293 1.84989 22.2543 2.31655 22.6432C2.54989 22.9543 2.861 23.1488 3.24989 23.2265L5.46655 21.0099C5.62211 20.8543 5.81655 20.7765 6.04989 20.7765L7.09989 21.0099L7.68322 20.4265V18.5599C7.68322 18.4043 7.761 18.2488 7.91655 18.0932C8.07211 17.9376 8.22766 17.8599 8.38322 17.8599L10.3666 17.7432L12.9332 15.1765L13.1666 14.9432C13.2443 14.7876 13.3804 14.6904 13.5749 14.6515C13.7693 14.6126 13.9638 14.6515 14.1582 14.7682C14.3527 14.8849 14.4693 15.0404 14.5082 15.2349C14.5471 15.4293 14.4888 15.6043 14.3332 15.7599L13.9832 16.2265L11.1832 19.0265C11.0277 19.1821 10.8721 19.2599 10.7166 19.2599H9.19989V20.7765C9.19989 21.0099 9.12211 21.1654 8.96655 21.2432L7.91655 22.4099C7.761 22.5654 7.56655 22.6043 7.33322 22.5265L6.28322 22.4099L4.06655 24.6265C3.911 24.7043 3.71655 24.7432 3.48322 24.7432ZM16.6666 16.3432C15.2666 16.3432 13.9638 16.0321 12.7582 15.4099C11.5527 14.7876 10.561 13.9126 9.78322 12.7849C9.00544 11.6571 8.55822 10.3932 8.44155 8.9932C8.32489 7.5932 8.53878 6.27098 9.08322 5.02653C9.62766 3.78209 10.4443 2.75153 11.5332 1.93486C12.6221 1.11819 13.8666 0.593197 15.2666 0.359863C15.4999 0.282085 15.7138 0.359863 15.9082 0.593197C16.1027 0.82653 16.161 1.07931 16.0832 1.35153C16.0054 1.62375 15.811 1.79875 15.4999 1.87653C13.7888 2.10986 12.4082 2.92653 11.3582 4.32653C10.3082 5.72653 9.89989 7.30153 10.1332 9.05153C10.3666 10.8015 11.1443 12.221 12.4666 13.3099C13.7888 14.3988 15.3054 14.9043 17.0166 14.8265C18.7277 14.7488 20.186 14.0682 21.3916 12.7849C22.5971 11.5015 23.1999 10.0043 23.1999 8.2932C23.1999 7.20431 22.9666 6.1932 22.4999 5.25986C22.0332 4.32653 21.3332 3.54875 20.3999 2.92653C20.2443 2.77097 20.1666 2.59597 20.1666 2.40153C20.1666 2.20708 20.2249 2.03209 20.3416 1.87653C20.4582 1.72097 20.6138 1.62375 20.8082 1.58486C21.0027 1.54597 21.1777 1.60431 21.3332 1.75986C22.7332 2.77097 23.7249 4.0932 24.3082 5.72653C24.8916 7.35986 24.911 9.01264 24.3666 10.6849C23.8221 12.3571 22.8499 13.7182 21.4499 14.7682C20.0499 15.8182 18.4554 16.3432 16.6666 16.3432ZM18.2999 1.87653C18.2221 1.87653 18.1249 1.85709 18.0082 1.8182C17.8916 1.77931 17.7749 1.68209 17.6582 1.52653C17.5416 1.37098 17.5027 1.17653 17.5416 0.943195C17.5804 0.709862 17.736 0.534863 18.0082 0.418198C18.2804 0.301529 18.5332 0.34042 18.7666 0.534863C18.9999 0.729309 19.0777 0.943195 18.9999 1.17653C18.9221 1.40986 18.8249 1.58486 18.7082 1.70153C18.5916 1.8182 18.4166 1.87653 18.1832 1.87653H18.2999ZM17.7166 9.6932C16.861 9.6932 16.161 9.42097 15.6166 8.87653C15.0721 8.33208 14.7999 7.65153 14.7999 6.83486C14.7999 6.0182 15.0721 5.3182 15.6166 4.73486C16.161 4.15153 16.8416 3.85986 17.6582 3.85986C18.4749 3.85986 19.1749 4.15153 19.7582 4.73486C20.3416 5.3182 20.6332 6.0182 20.6332 6.83486C20.6332 7.65153 20.3416 8.33208 19.7582 8.87653C19.1749 9.42097 18.4943 9.6932 17.7166 9.6932ZM17.7166 5.37653C17.3277 5.37653 16.9777 5.51264 16.6666 5.78486C16.3554 6.05709 16.1999 6.38764 16.1999 6.77653C16.1999 7.16542 16.3554 7.51542 16.6666 7.82653C16.9777 8.13764 17.3277 8.2932 17.7166 8.2932C18.1054 8.2932 18.436 8.13764 18.7082 7.82653C18.9804 7.51542 19.1166 7.16542 19.1166 6.77653C19.1166 6.38764 18.9804 6.05709 18.7082 5.78486C18.436 5.51264 18.1054 5.37653 17.7166 5.37653ZM27.1666 35.3599C27.011 35.3599 26.8554 35.2821 26.6999 35.1265C26.5443 34.971 26.4666 34.8154 26.4666 34.6599V26.3765V26.0265C26.3888 25.7932 26.4277 25.5793 26.5832 25.3849C26.7388 25.1904 26.9332 25.1321 27.1666 25.2099H27.9832L20.1666 18.7932L12.2332 25.0932H13.0499C13.361 25.0932 13.5749 25.1904 13.6916 25.3849C13.8082 25.5793 13.8666 25.7932 13.8666 26.0265L13.7499 26.3765V34.6599C13.7499 34.8154 13.6916 34.971 13.5749 35.1265C13.4582 35.2821 13.2832 35.3599 13.0499 35.3599C12.8166 35.3599 12.6416 35.2821 12.5249 35.1265C12.4082 34.971 12.3499 34.8154 12.3499 34.6599V26.6099H10.1332C9.82211 26.6099 9.60822 26.4543 9.49155 26.1432C9.37489 25.8321 9.43322 25.5599 9.66655 25.3265L19.6999 17.2765C19.7777 17.1988 19.9138 17.1599 20.1082 17.1599C20.3027 17.1599 20.4777 17.1988 20.6332 17.2765L30.5499 25.3265C30.7832 25.5599 30.8416 25.8321 30.7249 26.1432C30.6082 26.4543 30.3943 26.6099 30.0832 26.6099H27.9832V34.6599C27.9832 34.8154 27.9054 34.971 27.7499 35.1265C27.5943 35.2821 27.3999 35.3599 27.1666 35.3599ZM20.1666 23.8099C20.011 23.8099 19.8554 23.7321 19.6999 23.5765C19.5443 23.421 19.4666 23.246 19.4666 23.0515C19.4666 22.8571 19.5443 22.6821 19.6999 22.5265C22.3443 20.1932 23.5499 17.821 23.3166 15.4099C23.0832 13.4654 22.0332 11.5599 20.1666 9.6932C19.2332 8.75986 18.2999 8.02098 17.3666 7.47653C17.0554 7.32097 16.8999 7.08764 16.8999 6.77653C16.8999 6.46542 17.036 6.25153 17.3082 6.13486C17.5804 6.0182 17.8332 6.03764 18.0666 6.1932C19.1554 6.81542 20.2054 7.67097 21.2166 8.75986C23.3166 10.8599 24.4832 12.9988 24.7166 15.1765C25.0277 18.1321 23.6666 20.971 20.6332 23.6932C20.5554 23.771 20.3999 23.8099 20.1666 23.8099ZM22.0332 35.1265C21.8777 35.1265 21.7221 35.0682 21.5666 34.9515C21.411 34.8349 21.3332 34.6599 21.3332 34.4265V29.9932C21.3332 29.6821 21.236 29.4293 21.0416 29.2349C20.8471 29.0404 20.5943 28.9432 20.2832 28.9432H19.4666C19.1554 28.9432 18.9027 29.0404 18.7082 29.2349C18.5138 29.4293 18.4166 29.6821 18.4166 29.9932V34.4265C18.4166 34.6599 18.3388 34.8349 18.1832 34.9515C18.0277 35.0682 17.8527 35.1265 17.6582 35.1265C17.4638 35.1265 17.2888 35.0682 17.1332 34.9515C16.9777 34.8349 16.8999 34.6599 16.8999 34.4265V29.9932C16.8999 29.2932 17.1527 28.6904 17.6582 28.1849C18.1638 27.6793 18.7666 27.4265 19.4666 27.4265H20.2832C20.9832 27.4265 21.586 27.6793 22.0916 28.1849C22.5971 28.6904 22.811 29.2932 22.7332 29.9932V34.4265C22.811 34.6599 22.7721 34.8349 22.6166 34.9515C22.461 35.0682 22.2666 35.1265 22.0332 35.1265Z" fill="#1A1A1A"/>
</svg>
