<svg width="14" height="14" viewBox="0 0 14 14" fill="none" xmlns="http://www.w3.org/2000/svg">
<path d="M6.75034 3.30566C8.59604 3.30566 10.1195 4.8291 10.1195 6.6748C10.1195 8.5498 8.59604 10.0439 6.75034 10.0439C4.87534 10.0439 3.3812 8.5498 3.3812 6.6748C3.3812 4.8291 4.87534 3.30566 6.75034 3.30566ZM6.75034 8.87207C7.95151 8.87207 8.91831 7.90527 8.91831 6.6748C8.91831 5.47363 7.95151 4.50684 6.75034 4.50684C5.51987 4.50684 4.55307 5.47363 4.55307 6.6748C4.55307 7.90527 5.54917 8.87207 6.75034 8.87207ZM11.0277 3.18848C11.0277 3.62793 10.6761 3.97949 10.2367 3.97949C9.79721 3.97949 9.44565 3.62793 9.44565 3.18848C9.44565 2.74902 9.79721 2.39746 10.2367 2.39746C10.6761 2.39746 11.0277 2.74902 11.0277 3.18848ZM13.2542 3.97949C13.3128 5.06348 13.3128 8.31543 13.2542 9.39941C13.1957 10.4541 12.9613 11.3623 12.1996 12.1533C11.4378 12.915 10.5003 13.1494 9.44565 13.208C8.36167 13.2666 5.10971 13.2666 4.02573 13.208C2.97104 13.1494 2.06284 12.915 1.27182 12.1533C0.510106 11.3623 0.275731 10.4541 0.217137 9.39941C0.158543 8.31543 0.158543 5.06348 0.217137 3.97949C0.275731 2.9248 0.510106 1.9873 1.27182 1.22559C2.06284 0.463867 2.97104 0.229492 4.02573 0.170898C5.10971 0.112305 8.36167 0.112305 9.44565 0.170898C10.5003 0.229492 11.4378 0.463867 12.1996 1.22559C12.9613 1.9873 13.1957 2.9248 13.2542 3.97949ZM11.848 10.542C12.1996 9.69238 12.1117 7.6416 12.1117 6.6748C12.1117 5.7373 12.1996 3.68652 11.848 2.80762C11.6136 2.25098 11.1742 1.78223 10.6175 1.57715C9.73862 1.22559 7.68784 1.31348 6.75034 1.31348C5.78354 1.31348 3.73276 1.22559 2.88315 1.57715C2.29721 1.81152 1.85776 2.25098 1.62339 2.80762C1.27182 3.68652 1.35971 5.7373 1.35971 6.6748C1.35971 7.6416 1.27182 9.69238 1.62339 10.542C1.85776 11.1279 2.29721 11.5674 2.88315 11.8018C3.73276 12.1533 5.78354 12.0654 6.75034 12.0654C7.68784 12.0654 9.73862 12.1533 10.6175 11.8018C11.1742 11.5674 11.6429 11.1279 11.848 10.542Z" fill="white"/>
<a href="https://www.figma.com/design/5UlJaoJExtN2Ic674fIwRk/65%2B-Real-Estate-Website-Templates-(Community)?node-id=2-992">
<rect fill="black" fill-opacity="0" x="-0.282375" y="-1.125" width="13.125" height="17.25"/>
</a>
</svg>
