<svg width="14" height="14" viewBox="0 0 14 14" fill="none" xmlns="http://www.w3.org/2000/svg">
<path d="M3.29794 13.2998H0.573332V4.54004H3.29794V13.2998ZM1.92099 3.36816C1.07138 3.36816 0.368254 2.63574 0.368254 1.75684C0.368254 0.907227 1.07138 0.204102 1.92099 0.204102C2.79989 0.204102 3.50302 0.907227 3.50302 1.75684C3.50302 2.63574 2.79989 3.36816 1.92099 3.36816ZM13.464 13.2998H10.7686V9.05176C10.7686 8.02637 10.7393 6.7373 9.3331 6.7373C7.92685 6.7373 7.72177 7.82129 7.72177 8.96387V13.2998H4.99716V4.54004H7.60458V5.74121H7.63388C8.01474 5.06738 8.89364 4.33496 10.212 4.33496C12.9659 4.33496 13.4933 6.15137 13.4933 8.49512V13.2998H13.464Z" fill="white"/>
<a href="https://www.figma.com/design/5UlJaoJExtN2Ic674fIwRk/65%2B-Real-Estate-Website-Templates-(Community)?node-id=2-992">
<rect fill="black" fill-opacity="0" x="0.178312" y="-1.125" width="13.125" height="17.25"/>
</a>
</svg>
