<svg width="18" height="21" viewBox="0 0 18 21" fill="none" xmlns="http://www.w3.org/2000/svg">
<path d="M15.1333 3.42323C14.2888 2.62322 13.3444 2.001 12.2999 1.55656C11.2555 1.11211 10.1555 0.889891 8.99992 0.889891C7.84436 0.889891 6.73325 1.11211 5.66659 1.55656C4.59992 2.001 3.66659 2.62322 2.86659 3.42323C2.06659 4.22322 1.44436 5.15656 0.999919 6.22323C0.555474 7.28989 0.333252 8.401 0.333252 9.55656C0.333252 10.7121 0.555474 11.8121 0.999919 12.8566C1.44436 13.901 2.06659 14.8454 2.86659 15.6899L7.46659 20.2899C7.86659 20.6899 8.36659 20.8899 8.96659 20.8899C9.56659 20.8899 10.0888 20.6899 10.5333 20.2899L15.1333 15.6899C15.9333 14.8454 16.5555 13.901 16.9999 12.8566C17.4444 11.8121 17.6666 10.7121 17.6666 9.55656C17.6666 8.401 17.4444 7.28989 16.9999 6.22323C16.5555 5.15656 15.9333 4.22322 15.1333 3.42323ZM14.2666 14.8232L9.66659 19.4232C9.48881 19.601 9.26659 19.6899 8.99992 19.6899C8.73325 19.6899 8.48881 19.601 8.26659 19.4232L3.66659 14.8232C2.95547 14.1121 2.42214 13.301 2.06659 12.3899C1.71103 11.4788 1.53325 10.5232 1.53325 9.52323C1.53325 8.52322 1.71103 7.56767 2.06659 6.65656C2.42214 5.74545 2.95547 4.94545 3.66659 4.25656C4.3777 3.56767 5.18881 3.03434 6.09992 2.65656C7.01103 2.27878 7.96659 2.08989 8.96659 2.08989C9.96659 2.08989 10.9221 2.27878 11.8333 2.65656C12.7444 3.03434 13.5555 3.55656 14.2666 4.22322C15.2444 5.201 15.8999 6.33434 16.2333 7.62323C16.5666 8.91211 16.5666 10.201 16.2333 11.4899C15.8999 12.7788 15.2444 13.8899 14.2666 14.8232ZM8.99992 6.42323C8.15547 6.42323 7.42214 6.73434 6.79992 7.35656C6.1777 7.97878 5.86659 8.71211 5.86659 9.55656C5.86659 10.401 6.1777 11.1232 6.79992 11.7232C7.42214 12.3232 8.15547 12.6232 8.99992 12.6232C9.84436 12.6232 10.5666 12.3232 11.1666 11.7232C11.7666 11.1232 12.0666 10.401 12.0666 9.55656C12.0666 8.71211 11.7666 7.97878 11.1666 7.35656C10.5666 6.73434 9.84436 6.42323 8.99992 6.42323ZM8.99992 11.4899C8.46659 11.4899 8.01103 11.301 7.63325 10.9232C7.25547 10.5454 7.06659 10.0899 7.06659 9.55656C7.06659 9.02322 7.25547 8.56767 7.63325 8.18989C8.01103 7.81211 8.46659 7.62323 8.99992 7.62323C9.53325 7.62323 9.98881 7.81211 10.3666 8.18989C10.7444 8.56767 10.9333 9.02322 10.9333 9.55656C10.9333 10.0899 10.7444 10.5454 10.3666 10.9232C9.98881 11.301 9.53325 11.4899 8.99992 11.4899Z" fill="#1A1A1A"/>
</svg>
