<svg width="16" height="13" viewBox="0 0 16 13" fill="none" xmlns="http://www.w3.org/2000/svg">
<path d="M1.54761 5.92826H13.5583L8.95919 1.54902C8.71837 1.31969 8.70903 0.938709 8.93841 0.697959C9.16749 0.457509 9.54859 0.447879 9.78971 0.677194L15.0421 5.67878C15.2693 5.90628 15.3948 6.20843 15.3948 6.53013C15.3948 6.85153 15.2693 7.15398 15.0315 7.39141L9.78941 12.3828C9.67292 12.4938 9.52361 12.5489 9.3743 12.5489C9.21536 12.5489 9.05642 12.4863 8.93811 12.362C8.70873 12.1213 8.71807 11.7406 8.95889 11.5113L13.5772 7.13201H1.54761C1.21528 7.13201 0.945557 6.86237 0.945557 6.53013C0.945557 6.1979 1.21528 5.92826 1.54761 5.92826Z" fill="white"/>
</svg>
