<svg width="21" height="21" viewBox="0 0 21 21" fill="none" xmlns="http://www.w3.org/2000/svg">
<path d="M15.3502 20.69C13.528 20.69 11.7502 20.3567 10.0169 19.69C8.19464 18.9789 6.58353 17.9122 5.18353 16.49C3.78353 15.0678 2.70575 13.4456 1.9502 11.6233C1.28353 9.89 0.950195 8.11222 0.950195 6.29C0.950195 5.26778 1.20575 4.33444 1.71686 3.49C2.22797 2.64555 2.90575 1.96778 3.7502 1.45667C4.59464 0.945553 5.52797 0.689997 6.5502 0.689997C6.81686 0.689997 6.99464 0.823332 7.08353 1.09L9.61686 7.35666C9.66131 7.49 9.6502 7.63444 9.58353 7.79C9.51686 7.94555 9.41686 8.04555 9.28353 8.09L6.5502 9.22333C6.59464 10.2456 6.88353 11.2011 7.41686 12.09C7.9502 12.9789 8.66131 13.69 9.5502 14.2233C10.4391 14.7567 11.3946 15.0456 12.4169 15.09L13.5502 12.3567C13.5946 12.2233 13.6946 12.1233 13.8502 12.0567C14.0058 11.99 14.1502 11.9789 14.2835 12.0233L20.5502 14.5567C20.8169 14.6456 20.9502 14.8233 20.9502 15.09C20.9502 16.1122 20.6946 17.0456 20.1835 17.89C19.6724 18.7344 18.9946 19.4122 18.1502 19.9233C17.3058 20.4344 16.3724 20.69 15.3502 20.69ZM6.1502 1.89C5.03908 1.97889 4.09464 2.44555 3.31686 3.29C2.53908 4.13444 2.1502 5.13444 2.1502 6.29C2.1502 8.06778 2.48353 9.75666 3.1502 11.3567C3.81686 12.9567 4.77242 14.3789 6.01686 15.6233C7.26131 16.8678 8.68353 17.8233 10.2835 18.49C11.8835 19.1567 13.5724 19.49 15.3502 19.49C16.5058 19.49 17.5058 19.1011 18.3502 18.3233C19.1946 17.5456 19.6613 16.6011 19.7502 15.49L14.4169 13.3567L13.3502 15.9567C13.2613 16.1789 13.0835 16.29 12.8169 16.29C11.4835 16.29 10.2391 15.9567 9.08353 15.29C7.92797 14.6233 7.01686 13.7122 6.3502 12.5567C5.68353 11.4011 5.3502 10.1567 5.3502 8.82333C5.3502 8.55666 5.46131 8.37889 5.68353 8.29L8.28353 7.22333L6.1502 1.89Z" fill="#1A1A1A"/>
</svg>
