<svg width="28" height="23" viewBox="0 0 28 23" fill="none" xmlns="http://www.w3.org/2000/svg">
<path fill-rule="evenodd" clip-rule="evenodd" d="M27.42 1.82093C27.51 1.22843 27.2575 0.634735 26.7687 0.285935C26.28 -0.0615651 25.6362 -0.105266 25.105 0.173434C20.8537 2.40593 5.98247 10.2134 1.41497 12.6109C0.85117 12.9059 0.518668 13.5084 0.567468 14.1422C0.616168 14.7759 1.03617 15.3209 1.63867 15.5272C3.41747 16.1359 5.59117 16.8822 8.99997 18.0509L22.75 5.19973L11.6225 18.9497C15.2575 20.1959 20.9412 22.1447 22.3675 22.6334C22.8137 22.7872 23.3062 22.7334 23.71 22.4897C24.1137 22.2447 24.3875 21.8334 24.4587 21.3659L27.42 1.82093Z" fill="white"/>
</svg>
