<svg width="16" height="13" viewBox="0 0 16 13" fill="none" xmlns="http://www.w3.org/2000/svg">
<path d="M13.5185 3.62793C13.5185 3.77441 13.5185 3.8916 13.5185 4.03809C13.5185 8.11035 10.4423 12.7686 4.78805 12.7686C3.03023 12.7686 1.41891 12.2705 0.07125 11.3916C0.305625 11.4209 0.54 11.4502 0.803672 11.4502C2.23922 11.4502 3.55758 10.9521 4.61227 10.1318C3.26461 10.1025 2.12203 9.22363 1.74117 7.99316C1.94625 8.02246 2.12203 8.05176 2.32711 8.05176C2.59078 8.05176 2.88375 7.99316 3.11812 7.93457C1.71187 7.6416 0.657187 6.41113 0.657187 4.91699V4.8877C1.06734 5.12207 1.56539 5.23926 2.06344 5.26855C1.21383 4.71191 0.686484 3.77441 0.686484 2.71973C0.686484 2.13379 0.832969 1.60645 1.09664 1.16699C2.62008 3.0127 4.90523 4.24316 7.45406 4.38965C7.39547 4.15527 7.36617 3.9209 7.36617 3.68652C7.36617 1.9873 8.74312 0.610352 10.4423 0.610352C11.3212 0.610352 12.1123 0.961914 12.6982 1.57715C13.372 1.43066 14.0459 1.16699 14.6318 0.81543C14.3974 1.54785 13.9287 2.13379 13.2841 2.51465C13.8994 2.45605 14.5146 2.28027 15.042 2.0459C14.6318 2.66113 14.1045 3.18848 13.5185 3.62793Z" fill="white"/>
<a href="https://www.figma.com/design/5UlJaoJExtN2Ic674fIwRk/65%2B-Real-Estate-Website-Templates-(Community)?node-id=2-992">
<rect fill="black" fill-opacity="0" x="-0.749063" y="-1.125" width="15" height="17.25"/>
</a>
</svg>
