<svg width="12" height="14" viewBox="0 0 12 14" fill="none" xmlns="http://www.w3.org/2000/svg">
<path d="M5.41519 1.10312L5.41448 1.10383L0.897045 5.62127C0.545786 5.97566 0.548327 6.54771 0.90272 6.89897C0.930728 6.92672 0.960515 6.95262 0.991911 6.9765C1.36971 7.22979 1.87496 7.17451 2.18903 6.8455L4.69169 4.35187C4.82439 4.21931 4.93566 4.06691 5.02147 3.90013L5.16602 3.62456L5.16603 12.5013C5.14691 12.9559 5.45774 13.3582 5.90237 13.4545C6.39491 13.5344 6.85896 13.1999 6.93884 12.7073C6.94722 12.6556 6.95109 12.6033 6.95041 12.551V3.64263L7.04076 3.83688C7.12928 4.02642 7.25003 4.19912 7.39764 4.34735L9.89578 6.8455C10.2099 7.17451 10.7151 7.22979 11.0929 6.9765C11.4955 6.68171 11.5829 6.11638 11.2881 5.71376C11.2643 5.68124 11.2383 5.65032 11.2104 5.62127L6.69292 1.10383C6.34028 0.750819 5.76823 0.750509 5.41519 1.10312Z" fill="white"/>
</svg>
