<svg width="14" height="17" viewBox="0 0 14 17" fill="none" xmlns="http://www.w3.org/2000/svg">
<path d="M6.69525 7.92334C7.76192 7.92334 8.66859 7.54111 9.41525 6.77667C10.1619 6.01222 10.5353 5.09667 10.5353 4.03C10.5353 2.96334 10.1619 2.05667 9.41525 1.31C8.66859 0.563335 7.76192 0.190002 6.69525 0.190002C5.62859 0.190002 4.72192 0.563335 3.97525 1.31C3.22859 2.05667 2.85525 2.96334 2.85525 4.03C2.85525 5.09667 3.22859 6.01222 3.97525 6.77667C4.72192 7.54111 5.62859 7.92334 6.69525 7.92334ZM4.61525 2.00333C5.18414 1.43445 5.86859 1.15 6.66859 1.15C7.46859 1.15 8.16192 1.43445 8.74859 2.00333C9.33525 2.57222 9.62859 3.25667 9.62859 4.05667C9.62859 4.85667 9.34414 5.54111 8.77525 6.11C8.20637 6.67889 7.51303 6.96334 6.69525 6.96334C5.87748 6.96334 5.18414 6.67889 4.61525 6.11C4.04637 5.54111 3.76192 4.85667 3.76192 4.05667C3.76192 3.25667 4.04637 2.57222 4.61525 2.00333ZM13.4153 12.51C13.4153 12.19 13.3797 11.8433 13.3086 11.47C13.2375 11.0967 13.1486 10.7589 13.0419 10.4567C12.9353 10.1544 12.793 9.84334 12.6153 9.52334C12.4375 9.20334 12.233 8.92778 12.0019 8.69667C11.7708 8.46556 11.4775 8.27889 11.1219 8.13667C10.7664 7.99445 10.3753 7.92334 9.94859 7.92334C9.80637 7.92334 9.59303 8.01222 9.30859 8.19L8.66859 8.61667C8.45525 8.75889 8.17081 8.88334 7.81525 8.99C7.4597 9.09667 7.11303 9.15 6.77525 9.15C6.43748 9.15 6.09081 9.09667 5.73525 8.99C5.3797 8.88334 5.11303 8.75889 4.93525 8.61667L4.24192 8.19C3.99303 8.01222 3.79748 7.92334 3.65525 7.92334C3.22859 7.92334 2.83748 7.99445 2.48192 8.13667C2.12637 8.27889 1.82414 8.46556 1.57525 8.69667C1.32637 8.92778 1.11303 9.20334 0.935254 9.52334C0.757476 9.84334 0.615254 10.1633 0.508587 10.4833C0.401921 10.8033 0.321921 11.1411 0.268587 11.4967C0.215254 11.8522 0.179698 12.1811 0.161921 12.4833C0.144143 12.7856 0.135254 13.0967 0.135254 13.4167C0.135254 14.27 0.393032 14.9456 0.908587 15.4433C1.42414 15.9411 2.10859 16.19 2.96192 16.19H10.6419C11.4597 16.19 12.1353 15.9411 12.6686 15.4433C13.2019 14.9456 13.4686 14.27 13.4686 13.4167C13.4686 13.0967 13.4508 12.7944 13.4153 12.51ZM12.0286 14.75C11.673 15.07 11.2108 15.23 10.6419 15.23H2.96192C2.35748 15.23 1.88637 15.07 1.54859 14.75C1.21081 14.43 1.04192 13.9856 1.04192 13.4167L1.09525 12.5633C1.09525 12.2789 1.13081 11.9767 1.20192 11.6567C1.27303 11.3367 1.34414 11.0433 1.41525 10.7767C1.48637 10.51 1.59303 10.2522 1.73525 10.0033C1.87748 9.75445 2.03748 9.55 2.21525 9.39C2.39303 9.23 2.59748 9.10556 2.82859 9.01667C3.0597 8.92778 3.2997 8.88334 3.54859 8.88334L4.40192 9.41667C4.68637 9.59445 5.04192 9.74556 5.46859 9.87C5.89525 9.99445 6.33081 10.0567 6.77525 10.0567C7.2197 10.0567 7.66414 9.99445 8.10859 9.87C8.55303 9.74556 8.8997 9.59445 9.14859 9.41667L10.0019 8.88334C10.2864 8.88334 10.5441 8.92778 10.7753 9.01667C11.0064 9.10556 11.2019 9.23 11.3619 9.39C11.5219 9.55 11.673 9.75445 11.8153 10.0033C11.9575 10.2522 12.073 10.51 12.1619 10.7767C12.2508 11.0433 12.3219 11.3367 12.3753 11.6567C12.4286 11.9767 12.473 12.2789 12.5086 12.5633V13.4167C12.5086 13.9856 12.3486 14.43 12.0286 14.75Z" fill="#1A1A1A"/>
</svg>
